<svg id="Layer_1" data-name="Layer 1" xmlns="http://www.w3.org/2000/svg" width="900" height="200" viewBox="0 0 900 200">
  <g>
    <path id="Logo0" d="M112.61,122.88c0,8.49,1.87,15,4.3,19a14.68,14.68,0,0,0,12.82,7.35c6.27,0,12-1.55,23-16.83,8.85-12.24,19.28-29.43,26.3-40.21L191,73.9c8.25-12.68,17.8-26.77,28.76-36.33,8.94-7.79,18.58-12.13,28.29-12.13,16.3,0,31.82,9.45,43.71,27.16C304.71,72,311,96.44,311,121.66c0,15-2.95,26-8,34.7-4.86,8.42-14.33,16.83-30.25,16.83v-24c13.63,0,17-12.53,17-26.87,0-20.44-4.77-43.12-15.27-59.32-7.44-11.5-17.1-18.52-27.72-18.52-11.48,0-20.73,8.66-31.12,24.11-5.52,8.21-11.19,18.21-17.56,29.5l-7,12.41c-14.08,25-17.65,30.65-24.69,40-12.33,16.43-22.87,22.66-36.74,22.66-16.45,0-26.86-7.13-33.3-17.86-5.26-8.75-7.84-20.23-7.84-33.31Z" style="fill: #fff"/>
    <path id="Logo1" d="M107.53,54.3c11-17,26.91-28.86,45.14-28.86,10.56,0,21.06,3.13,32,12.08,12,9.78,24.77,25.9,40.71,52.45l5.72,9.53c13.8,23,21.65,34.82,26.24,40.39,5.91,7.17,10.05,9.3,15.43,9.3,13.63,0,17-12.53,17-26.87l21.19-.66c0,15-2.95,26-8,34.7-4.86,8.42-14.33,16.83-30.25,16.83-9.91,0-18.68-2.15-28.38-11.3-7.45-7-16.17-19.5-22.88-30.72L201.58,97.85c-10-16.73-19.19-29.2-24.5-34.84C171.36,56.93,164,49.6,152.29,49.6c-9.49,0-17.55,6.66-24.3,16.85Z" style="fill: #fff"/>
    <path id="Logo2" d="M152.29,49.6c-9.49,0-17.55,6.66-24.3,16.85-9.54,14.39-15.38,35.84-15.38,56.43,0,8.49,1.87,15,4.3,19L96.43,155.33c-5.26-8.75-7.84-20.23-7.84-33.31,0-23.79,6.53-48.58,18.94-67.72,11-17,26.91-28.86,45.14-28.86Z" style="fill: #fff"/>
    <path id="Text" d="M357.73,30.12h27.79l47.25,85.49L480,30.12h27.19V170.59H484.55V62.93l-41.44,74.55H421.84L380.4,62.93V170.59H357.73ZM578.26,82.49c-16.26,0-26,12.24-28.39,27.39h55.18c-1.14-15.61-10.14-27.39-26.79-27.39Zm-50.87,36c0-31.88,20.61-55.09,51.27-55.09,30.16,0,48.17,22.92,48.17,56.8v6.22h-77c2.73,16.49,13.67,27.59,31.3,27.59,14.07,0,22.87-4.29,31.21-12.14l12,14.75c-11.35,10.44-25.78,16.45-44,16.45C547.18,173.09,527.39,148.89,527.39,118.51Zm126.93-34H633.45V65.94h20.87V35.24h21.87v30.7H707.9V84.5H676.19v47.06c0,16.06,5.14,21.77,17.76,21.77A72.85,72.85,0,0,0,707.9,152v18.37a65.4,65.4,0,0,1-18.16,2.5q-35.43,0-35.42-38.73ZM800,102.56c-4.39-11.1-14.2-19.26-28.6-19.26-18.72,0-30.7,13.28-30.7,34.91,0,21.1,11,35,29.8,35,14.76,0,25.3-8.59,29.5-19.27Zm21.87,68H800.41V155.94c-6,8.62-16.92,17.15-34.61,17.15-28.45,0-47.47-23.81-47.47-54.88,0-31.36,19.47-54.79,48.67-54.79,14.44,0,25.76,5.77,33.41,16V65.94h21.47Z" style="fill: #fff"/>
  </g>
</svg>
