<svg id="Layer_1" data-name="Layer 1" xmlns="http://www.w3.org/2000/svg" width="900" height="200" viewBox="0 0 900 200">
  <path id="path1293" d="M146.64,34.68v1c11.84,4.57,7.42,16.1,7.42,16.1l-21.64,68.55L103.16,34.88H62.39v1.23c6.93,1.68,10.32,13.65,10.32,13.65L99.55,123.9c7.41,20.86,21.31,25,21.31,25L138,155.49,179.3,34.68ZM789,34.89l-38,1.47v1c7.77.52,7.1,12.19,7.1,12.48V77.14c-26.57-16.81-45.86,5-45.73,4.58C700,94,700.49,113.44,700.35,113.3c0,20.47,12,30.91,12,30.91,15.79,16.87,34.84,10.31,34.84,10.31s8.24-14.61,8.24-14.73c-23.49,3.88-23.5-26.35-23.36-26.49,0-26,13.9-24.49,14-24.64,12,.15,12,13.8,12,13.31v52.6h0l38.36,0v-1s-7.62.76-7.43-13.57h0Zm25.43.08A15.06,15.06,0,1,0,829.61,50,15.13,15.13,0,0,0,814.43,35Zm0,2.07a13,13,0,1,1-13.09,13,13,13,0,0,1,13.09-13Zm-5.8,4.2V59h2.51V51h3.46c1,.07,2,0,2.71.79s.81,2.36,1,3.94c.13,1.07.42,2.23.64,3.28h2.66a25.36,25.36,0,0,1-1.12-5.34c-.28-2-.56-3.12-2.7-3.63v0a4.25,4.25,0,0,0,3.34-4.29c0-3.51-3.09-4.45-6.1-4.45Zm2.44,2.12h4.11c2.75.12,3.37,1.35,3.37,2.76s-.62,2.63-3.37,2.75h-4.11ZM693.7,70.54c-5.42-.05-13.61,1.74-18.81,11.53V71.27l-37.58,1.47v1c7.76.52,7.09,12.18,7.09,12.49v55.94c-2.45,0-7.48,0-7.48-.08-12.58-.7-12.6-13.45-12.54-13.83l-.32-25.64c.13-18.5-11-24.4-10.82-24.56-21-12.9-51.12-4-51.12-4s-6.42,20.22-6.6,20.07c32-13.88,37.18-.14,37-.63a5.89,5.89,0,0,1,.37,3.63c-1,6-12.15,7.61-12.3,7.61a140.45,140.45,0,0,0-20.08,4.77C540.29,116.33,543,133.27,543,133.42c3.47,21.78,33.08,21.19,33.08,21.19h12.72l6.42-13.08C582,144.17,578,137,578,137c-5.48-9,2.81-14.32,2.81-14.32,3.24-2.49,13.66-4.79,13.66-4.79V131.1c1,24.41,27.25,23.55,28,23.45h21.95v0h37.92v-1c-.36,0-7.64.57-7.48-13.62l0-33.46h0c0,.11-1-19,24.31-14.77V71.25a21.59,21.59,0,0,0-5.5-.71ZM315,71.14c-12.26.23-20.56,7.62-22.6,9.63V71.26l-37.56,1.47v1.06C262.65,74.31,262,86,262,86.27v55.94c-2.56,0-7,0-7-.07-12.56-.71-12.58-13.48-12.54-13.84l-.33-25.63c.15-18.53-11-24.43-10.83-24.57-21-12.9-51.12-4-51.12-4s-6.45,20.22-6.58,20.07c32-13.88,37.2-.16,37-.63a6,6,0,0,1,.37,3.63c-1,6-12.14,7.61-12.29,7.61a142,142,0,0,0-20.09,4.76c-20.23,6.86-17.57,23.79-17.57,24,3.48,21.77,33.11,21.16,33.11,21.16h12.69l6.44-13.07C200.06,144.17,196,137,196,137c-5.48-9,2.83-14.32,2.83-14.32,3.24-2.49,13.63-4.79,13.63-4.79V131.1c1,24.41,27.27,23.55,28.1,23.45H262v0h37.69v-1s-6.95-.24-7.28-11.85l0-37.72h0c-.26-14,11.33-14.13,11.33-14.16,11.29-.11,10.47,9.82,10.55,12,0,0,0,38.1,0,38.11h.28l-.27.05v14.51H351.6v-1s-7.56-.21-7.33-13.56c0,0,0-41.23,0-41.23,0-28.65-29.19-27.63-29.19-27.63Zm78.74,0C383.52,71.65,372,73.6,363,82.31c0,0-15.74,15.21-2.24,34.51.12,0,6.42,9,17,12.32a1.16,1.16,0,0,1,.27,0l-.19,0c1,0-7.5.94-11.23,3.14-2.06,1.32-2.73,2.76-2.15,6.35s3.79,15.15,16.14,15.85c8.81.39,21.46-1.17,28.15,3.74,0,0,4.81,3.49,4.81,9.29,0,4.39-.52,13.38-19,14.33-.87,0-15.32-.12-18.15-10.28,0-.06-1.51-8.65,6.94-9.83,0,0-11.11-2.6-20.51,0-12.71,3.52-16.51,15.13-9.33,23.45-.11-.1,10.37,12.21,38.65,12,28.5.74,57-7.72,52-36.08-.13,0-3.42-20.21-34.28-20.11H394.68s-6.48.48-7.78-2.57c0,0-2.9-4.59,6.11-4.91l1.65-.19s26.62-3.23,34.86-14.77c.12-.13,12.61-13.82-.24-30.28a18.2,18.2,0,0,0-2-2.23h22.89c0,10.36-.08,40.68,0,40.89-.07,28.68,29.7,27.64,29.7,27.64,12.79-.24,21.25-8.28,22.79-9.86v9.74h38v-1c-8.14-.38-7.47-13.31-7.45-13.6V71.26l-37.58,1.47v1.06c7.77.52,7.1,12.17,7.1,12.48v35.55s0,0,0,0c-.41,15.93-11.62,14.05-11.57,14.23-10.56.11-10.28-11.47-10.28-11.47V71.15ZM395,87s9.9-.4,10.14,13.31c0,.24,1.33,16.21-10.16,16.21-.82.19-11.76-.78-10.57-16C384.56,100.72,384.13,87,395,87Z" style="fill: #fff;fill-rule: evenodd"/>
</svg>
